<?xml version="1.0" encoding="utf-8"?>
<!-- Generator: Adobe Illustrator 15.0.0, SVG Export Plug-In . SVG Version: 6.00 Build 0)  -->
<!DOCTYPE svg PUBLIC "-//W3C//DTD SVG 1.1//EN" "http://www.w3.org/Graphics/SVG/1.1/DTD/svg11.dtd">
<svg version="1.1" id="Calque_1" xmlns="http://www.w3.org/2000/svg" xmlns:xlink="http://www.w3.org/1999/xlink" x="0px" y="0px"
	 width="80px" height="80px" viewBox="0 0 80 80" enable-background="new 0 0 80 80" xml:space="preserve">
<g>
	<g>
		<path fill="#FFFBFF" d="M41.5,47.287c-10.491,0-11.999,15.22-11.999,15.22s2.883-6.929,9.945-6.929
			c7.059,0,13.713,12.889,13.713,12.889h2.463C55.622,68.467,51.992,47.287,41.5,47.287z"/>
		<path fill="#FFFBFF" d="M33.273,43.995c0,2.399,2.472,3.634,2.472,3.634c1.597-0.975,3.025-1.474,4.27-1.667
			c-1.695-0.839-3.957-2.36-4.876-4.81c-0.629-1.662-0.539-3.501,0.264-5.489c-1.184,0.88-2.396,2.14-3.907,3.873
			c-3.703,4.252-3.083,10.218-3.083,10.218h1.508C29.92,45.91,33.273,43.995,33.273,43.995z"/>
		<path fill="#FFFBFF" d="M35.646,40.958c1.026,2.702,3.897,4.238,5.495,4.902c3.111-0.054,4.816,1.764,4.816,1.764
			c-1.374-4.388-0.273-7.473,0.066-6.651c0.341,0.822,4.251,2.949,6.307,4.962c2.06,2.021,0.823,5.048,0.823,5.048l1.442,1.435
			c1.231,0,1.368-3.426,1.368-3.426c0-9.253-10.168-15.103-14.739-15.103c-2.045,0-3.542,0.339-4.98,1.198
			C35.193,37.253,34.992,39.217,35.646,40.958z"/>
		<path fill="#FFFBFF" d="M25.735,21.818l-1.508,3.12l9.118,2.367c0,4.386,3.701,6.134,3.701,6.134s1.813-0.82,3.976-0.82
			c2.162,0,3.874,0.993,3.874,0.993s4.355-0.993,4.355-5.724c0-4.728-3.879-6.89-7.748-6.89c-3.871,0-5.961,2.125-5.961,2.125
			l-7.171-9.252l-2.979,2.054l8.574,8.949l-0.414,1.061L25.735,21.818z M48.873,27.675c0.049,2.299-0.963,3.26-0.963,3.26
			c-5.411,0-7.094-5.382-7.094-5.382C46.813,25.553,48.873,27.675,48.873,27.675z"/>
	</g>
</g>
</svg>
