<?xml version="1.0" encoding="utf-8"?>
<!-- Generator: Adobe Illustrator 15.0.0, SVG Export Plug-In . SVG Version: 6.00 Build 0)  -->
<!DOCTYPE svg PUBLIC "-//W3C//DTD SVG 1.1//EN" "http://www.w3.org/Graphics/SVG/1.1/DTD/svg11.dtd">
<svg version="1.1" id="Calque_1" xmlns="http://www.w3.org/2000/svg" xmlns:xlink="http://www.w3.org/1999/xlink" x="0px" y="0px"
	 width="80px" height="80px" viewBox="0 0 80 80" enable-background="new 0 0 80 80" xml:space="preserve">
<g>
	<g>
		<path fill="#FFFBFF" d="M40.453,48.081c-10.139,0-11.596,14.71-11.596,14.71s2.787-6.696,9.611-6.696
			c6.822,0,13.252,12.456,13.252,12.456h2.38C54.101,68.551,50.593,48.081,40.453,48.081z"/>
		<path fill="#FFFBFF" d="M32.502,44.899c0,2.32,2.389,3.513,2.389,3.513c1.543-0.941,2.924-1.425,4.127-1.611
			c-1.639-0.811-3.825-2.281-4.713-4.647c-0.608-1.606-0.521-3.384,0.255-5.306c-1.145,0.851-2.316,2.068-3.776,3.743
			c-3.579,4.109-2.979,9.875-2.979,9.875h1.457C29.261,46.751,32.502,44.899,32.502,44.899z"/>
		<path fill="#FFFBFF" d="M34.795,41.965c0.992,2.612,3.766,4.097,5.311,4.738c3.006-0.052,4.654,1.704,4.654,1.704
			c-1.327-4.24-0.264-7.222,0.064-6.428c0.329,0.795,4.108,2.85,6.095,4.795c1.991,1.953,0.796,4.879,0.796,4.879l1.395,1.386
			c1.189,0,1.321-3.311,1.321-3.311c0-8.942-9.826-14.596-14.244-14.596c-1.977,0-3.423,0.328-4.813,1.158
			C34.358,38.384,34.163,40.283,34.795,41.965z"/>
		<path fill="#FFFBFF" d="M25.217,23.468l-1.457,3.015l8.812,2.288c0,4.239,3.577,5.928,3.577,5.928s1.751-0.792,3.842-0.792
			c2.09,0,3.744,0.959,3.744,0.959s4.209-0.959,4.209-5.531c0-4.569-3.748-6.659-7.487-6.659c-3.741,0-5.761,2.054-5.761,2.054
			l-6.931-8.942l-2.879,1.985l8.286,8.648l-0.4,1.025L25.217,23.468z M47.579,29.128c0.047,2.222-0.931,3.15-0.931,3.15
			c-5.23,0-6.857-5.202-6.857-5.202C45.588,27.077,47.579,29.128,47.579,29.128z"/>
	</g>
</g>
</svg>
