<?xml version="1.0" encoding="utf-8"?>
<!-- Generator: Adobe Illustrator 15.0.0, SVG Export Plug-In . SVG Version: 6.00 Build 0)  -->
<!DOCTYPE svg PUBLIC "-//W3C//DTD SVG 1.1//EN" "http://www.w3.org/Graphics/SVG/1.1/DTD/svg11.dtd">
<svg version="1.1" id="Calque_1" xmlns="http://www.w3.org/2000/svg" xmlns:xlink="http://www.w3.org/1999/xlink" x="0px" y="0px"
	 width="205px" height="205px" viewBox="0 0 205 205" enable-background="new 0 0 205 205" xml:space="preserve">
<g>
	<g>
		<path fill="#FFFBFF" d="M105.317,115.528c-20.336,0-23.259,29.505-23.259,29.505s5.589-13.432,19.279-13.432
			c13.683,0,26.583,24.985,26.583,24.985h4.773C132.693,156.587,125.658,115.528,105.317,115.528z"/>
		<path fill="#FFFBFF" d="M89.371,109.146c0,4.653,4.792,7.045,4.792,7.045c3.095-1.888,5.865-2.856,8.278-3.23
			c-3.286-1.626-7.671-4.577-9.453-9.324c-1.219-3.221-1.045-6.786,0.511-10.641c-2.296,1.707-4.646,4.148-7.574,7.508
			c-7.178,8.242-5.977,19.808-5.977,19.808h2.923C82.87,112.86,89.371,109.146,89.371,109.146z"/>
		<path fill="#FFFBFF" d="M93.971,103.26c1.989,5.239,7.554,8.217,10.651,9.504c6.031-0.104,9.336,3.419,9.336,3.419
			c-2.662-8.505-0.53-14.486,0.129-12.894c0.66,1.594,8.24,5.717,12.225,9.618c3.993,3.917,1.596,9.786,1.596,9.786l2.798,2.78
			c2.386,0,2.65-6.641,2.65-6.641c0-17.938-19.71-29.277-28.571-29.277c-3.965,0-6.866,0.657-9.655,2.322
			C93.093,96.078,92.701,99.885,93.971,103.26z"/>
		<path fill="#FFFBFF" d="M74.758,66.157l-2.923,6.047l17.675,4.588c0,8.503,7.175,11.891,7.175,11.891s3.514-1.59,7.707-1.59
			c4.19,0,7.51,1.924,7.51,1.924s8.442-1.924,8.442-11.095c0-9.165-7.518-13.357-15.019-13.357c-7.504,0-11.556,4.12-11.556,4.12
			L79.869,50.751l-5.775,3.981L90.715,72.08l-0.802,2.057L74.758,66.157z M119.612,77.511c0.094,4.457-1.867,6.32-1.867,6.32
			c-10.49,0-13.753-10.434-13.753-10.434C115.618,73.397,119.612,77.511,119.612,77.511z"/>
	</g>
</g>
</svg>
