<?xml version="1.0" encoding="utf-8"?>
<!-- Generator: Adobe Illustrator 15.0.0, SVG Export Plug-In . SVG Version: 6.00 Build 0)  -->
<!DOCTYPE svg PUBLIC "-//W3C//DTD SVG 1.1//EN" "http://www.w3.org/Graphics/SVG/1.1/DTD/svg11.dtd">
<svg version="1.1" id="Calque_1" xmlns="http://www.w3.org/2000/svg" xmlns:xlink="http://www.w3.org/1999/xlink" x="0px" y="0px"
	 width="92px" height="56px" viewBox="0 0 92 56" enable-background="new 0 0 92 56" xml:space="preserve">
<g>
	<g>
		<path fill="#FFFBFF" d="M47.285,33.604c-9.607,0-10.987,13.938-10.987,13.938s2.642-6.345,9.107-6.345
			C51.87,41.197,57.963,53,57.963,53h2.255C60.218,53,56.895,33.604,47.285,33.604z"/>
		<path fill="#FFFBFF" d="M39.753,30.588c0,2.197,2.264,3.327,2.264,3.327c1.461-0.89,2.771-1.348,3.91-1.524
			c-1.553-0.769-3.624-2.161-4.466-4.404c-0.576-1.522-0.495-3.206,0.241-5.028c-1.085,0.807-2.196,1.959-3.58,3.548
			c-3.39,3.893-2.823,9.357-2.823,9.357h1.381C36.682,32.344,39.753,30.588,39.753,30.588z"/>
		<path fill="#FFFBFF" d="M41.925,27.808c0.94,2.473,3.569,3.881,5.032,4.488c2.849-0.047,4.41,1.616,4.41,1.616
			c-1.258-4.017-0.251-6.844,0.062-6.09c0.312,0.754,3.893,2.702,5.774,4.544c1.887,1.85,0.753,4.621,0.753,4.621l1.323,1.313
			c1.127,0,1.252-3.136,1.252-3.136c0-8.474-9.312-13.831-13.499-13.831c-1.872,0-3.242,0.311-4.56,1.097
			C41.511,24.415,41.325,26.214,41.925,27.808z"/>
		<path fill="#FFFBFF" d="M32.849,10.28l-1.38,2.856l8.35,2.167c0,4.018,3.389,5.617,3.389,5.617s1.659-0.751,3.642-0.751
			c1.979,0,3.548,0.909,3.548,0.909s3.986-0.909,3.986-5.242c0-4.329-3.55-6.309-7.093-6.309c-3.544,0-5.459,1.945-5.459,1.945
			L35.264,3l-2.729,1.88l7.853,8.194l-0.379,0.971L32.849,10.28z M54.038,15.645c0.045,2.105-0.882,2.985-0.882,2.985
			c-4.955,0-6.497-4.929-6.497-4.929C52.152,13.7,54.038,15.645,54.038,15.645z"/>
	</g>
</g>
</svg>
