<?xml version="1.0" encoding="utf-8"?>
<!-- Generator: Adobe Illustrator 15.0.0, SVG Export Plug-In . SVG Version: 6.00 Build 0)  -->
<!DOCTYPE svg PUBLIC "-//W3C//DTD SVG 1.1//EN" "http://www.w3.org/Graphics/SVG/1.1/DTD/svg11.dtd">
<svg version="1.1" id="Calque_1" xmlns="http://www.w3.org/2000/svg" xmlns:xlink="http://www.w3.org/1999/xlink" x="0px" y="0px"
	 width="220px" height="50px" viewBox="0 0 220 50" enable-background="new 0 0 220 50" xml:space="preserve">
<g>
	<path fill="#FFFFFF" d="M11.16,31.414H5.545V13.648H0v-2.603h16.706v2.603H11.16V31.414z"/>
	<path fill="#FFFFFF" d="M34.104,31.414h-4.781v-1.952c-0.566,0.773-1.248,1.347-2.044,1.719s-1.671,0.559-2.624,0.559
		c-1.245,0-2.357-0.221-3.338-0.664c-0.98-0.443-1.811-1.05-2.489-1.817c-0.679-0.77-1.198-1.672-1.556-2.709
		c-0.358-1.037-0.537-2.15-0.537-3.339c0-1.188,0.179-2.301,0.537-3.338c0.358-1.037,0.877-1.94,1.556-2.709
		s1.509-1.374,2.489-1.817c0.981-0.443,2.094-0.665,3.338-0.665c0.632,0,1.233,0.095,1.803,0.283
		c0.571,0.188,1.094,0.455,1.57,0.799c0.477,0.344,0.896,0.759,1.259,1.245c0.363,0.485,0.648,1.025,0.856,1.619l2.121-3.55h1.839
		V31.414z M29.295,23.21c0-0.424-0.021-0.872-0.064-1.344s-0.115-0.938-0.219-1.4c-0.104-0.462-0.248-0.902-0.432-1.322
		s-0.419-0.792-0.707-1.117c-0.288-0.325-0.635-0.582-1.04-0.771c-0.405-0.188-0.877-0.282-1.415-0.282
		c-0.537,0-1.004,0.097-1.4,0.29c-0.396,0.193-0.735,0.452-1.018,0.777s-0.517,0.7-0.7,1.125c-0.184,0.424-0.328,0.867-0.431,1.329
		c-0.104,0.463-0.177,0.927-0.22,1.394s-0.064,0.907-0.064,1.322s0.021,0.858,0.064,1.33s0.116,0.938,0.22,1.4
		c0.103,0.462,0.247,0.905,0.431,1.329c0.184,0.425,0.417,0.799,0.7,1.125c0.283,0.325,0.622,0.584,1.018,0.777
		c0.396,0.193,0.863,0.29,1.4,0.29c0.491,0,0.927-0.101,1.309-0.304c0.381-0.203,0.716-0.475,1.004-0.813s0.53-0.726,0.728-1.16
		c0.199-0.434,0.359-0.882,0.481-1.343c0.123-0.463,0.212-0.922,0.269-1.38S29.295,23.588,29.295,23.21z"/>
	<path fill="#FFFFFF" d="M63.37,21.881c0,1.121-0.132,2.291-0.396,3.508c-0.264,1.217-0.634,2.402-1.111,3.557
		c-0.476,1.156-1.048,2.248-1.718,3.275c-0.67,1.028-1.415,1.919-2.235,2.674l-1.796-0.977c0.273-0.49,0.523-1.042,0.75-1.655
		c0.227-0.612,0.434-1.259,0.623-1.938s0.354-1.377,0.495-2.093c0.142-0.717,0.262-1.432,0.361-2.145
		c0.099-0.711,0.172-1.402,0.219-2.072c0.047-0.669,0.071-1.296,0.071-1.88c0-0.33-0.01-0.688-0.028-1.075
		c-0.019-0.387-0.06-0.773-0.121-1.16c-0.062-0.387-0.153-0.757-0.276-1.11c-0.123-0.354-0.29-0.669-0.502-0.948
		c-0.212-0.278-0.476-0.5-0.792-0.664c-0.316-0.165-0.695-0.248-1.139-0.248c-0.434,0-0.804,0.115-1.11,0.347
		c-0.307,0.231-0.568,0.53-0.786,0.898c-0.216,0.368-0.389,0.783-0.516,1.245c-0.127,0.462-0.224,0.926-0.29,1.393
		c-0.066,0.467-0.111,0.912-0.134,1.337c-0.023,0.424-0.035,0.783-0.035,1.075v8.189h-4.767v-7.609c0-0.33,0.004-0.729,0.014-1.195
		c0.009-0.467-0.003-0.955-0.036-1.465c-0.033-0.509-0.095-1.016-0.184-1.52c-0.09-0.505-0.231-0.955-0.424-1.351
		c-0.193-0.396-0.455-0.72-0.785-0.97c-0.331-0.25-0.746-0.375-1.245-0.375c-0.425,0-0.78,0.118-1.068,0.354
		c-0.288,0.236-0.528,0.54-0.722,0.913c-0.193,0.372-0.344,0.792-0.452,1.259c-0.108,0.467-0.189,0.934-0.241,1.399
		c-0.052,0.468-0.083,0.911-0.092,1.33c-0.01,0.42-0.014,0.767-0.014,1.04v8.189h-4.795V15.077h1.839l1.754,3.805
		c0.396-1.32,1.021-2.351,1.875-3.091c0.853-0.74,1.987-1.11,3.402-1.11c1.273,0,2.329,0.265,3.168,0.792
		c0.839,0.528,1.499,1.387,1.98,2.574c0.273-0.518,0.577-0.985,0.913-1.4c0.334-0.415,0.707-0.768,1.117-1.061
		c0.41-0.292,0.865-0.516,1.365-0.672c0.5-0.155,1.051-0.233,1.655-0.233c1.113,0,2.063,0.182,2.85,0.545s1.431,0.865,1.931,1.506
		c0.5,0.642,0.863,1.403,1.089,2.285C63.257,19.898,63.37,20.853,63.37,21.881z"/>
	<path fill="#FFFFFF" d="M82.268,20.438c0,0.67-0.108,1.267-0.325,1.79s-0.512,0.982-0.884,1.379
		c-0.373,0.396-0.804,0.73-1.294,1.004c-0.491,0.274-1.014,0.497-1.57,0.672c-0.556,0.175-1.129,0.3-1.719,0.375
		s-1.162,0.113-1.719,0.113c-0.707,0-1.405-0.05-2.093-0.148c-0.688-0.099-1.367-0.257-2.037-0.474
		c0.104,0.622,0.269,1.214,0.495,1.775c0.226,0.561,0.528,1.051,0.905,1.471c0.377,0.42,0.842,0.752,1.394,0.997
		c0.551,0.245,1.205,0.368,1.959,0.368c0.5,0,0.976-0.076,1.429-0.227s0.868-0.363,1.245-0.637c0.377-0.273,0.71-0.599,0.997-0.977
		c0.288-0.377,0.521-0.797,0.701-1.258l2.065,0.764c-0.311,0.744-0.738,1.389-1.28,1.931c-0.542,0.542-1.155,0.989-1.838,1.344
		c-0.684,0.354-1.41,0.615-2.179,0.784c-0.768,0.17-1.53,0.255-2.285,0.255c-1.244,0-2.395-0.21-3.451-0.629
		c-1.056-0.42-1.966-1.007-2.73-1.761c-0.764-0.755-1.363-1.655-1.796-2.702c-0.434-1.047-0.651-2.192-0.651-3.438
		c0-1.244,0.217-2.39,0.651-3.437c0.434-1.047,1.033-1.948,1.796-2.702s1.674-1.342,2.73-1.761c1.056-0.42,2.207-0.63,3.451-0.63
		c0.604,0,1.221,0.043,1.854,0.128c0.631,0.084,1.244,0.219,1.838,0.402c0.594,0.185,1.155,0.422,1.683,0.715
		c0.529,0.292,0.988,0.652,1.38,1.082c0.391,0.429,0.702,0.927,0.933,1.492C82.153,19.066,82.268,19.712,82.268,20.438z
		 M70.485,23.663c0.585,0.132,1.17,0.235,1.754,0.312c0.585,0.075,1.174,0.112,1.768,0.112c0.623,0,1.2-0.059,1.733-0.177
		c0.533-0.117,0.995-0.315,1.386-0.594s0.7-0.648,0.926-1.11c0.227-0.462,0.34-1.037,0.34-1.726c0-0.557-0.076-1.065-0.226-1.528
		c-0.151-0.462-0.375-0.857-0.672-1.188c-0.297-0.33-0.663-0.587-1.096-0.771c-0.434-0.184-0.938-0.275-1.514-0.275
		c-0.538,0-1.021,0.1-1.45,0.297c-0.429,0.198-0.806,0.465-1.132,0.799c-0.325,0.336-0.604,0.725-0.834,1.167
		c-0.231,0.443-0.422,0.906-0.573,1.387c-0.151,0.481-0.26,0.967-0.326,1.457c-0.065,0.49-0.099,0.952-0.099,1.386
		c0,0.075,0,0.151,0,0.226C70.471,23.512,70.476,23.588,70.485,23.663z"/>
	<path fill="#FFFFFF" d="M99.314,26.195c0,0.717-0.105,1.354-0.313,1.909c-0.207,0.557-0.49,1.04-0.848,1.45
		c-0.359,0.41-0.783,0.754-1.273,1.031c-0.49,0.279-1.017,0.504-1.577,0.673c-0.562,0.169-1.148,0.292-1.761,0.367
		c-0.613,0.076-1.221,0.113-1.825,0.113c-0.811,0-1.528-0.052-2.15-0.155c-0.623-0.104-1.217-0.271-1.783-0.502
		c-0.565-0.231-1.129-0.53-1.69-0.898c-0.562-0.367-1.186-0.815-1.875-1.344l2.787-2.277c0.255,0.48,0.592,0.918,1.011,1.309
		s0.856,0.729,1.308,1.012c0.453,0.282,0.892,0.5,1.316,0.65s0.769,0.227,1.033,0.227c0.217,0,0.462-0.008,0.736-0.021
		c0.273-0.015,0.551-0.043,0.834-0.085c0.283-0.042,0.561-0.106,0.834-0.191c0.273-0.085,0.516-0.2,0.728-0.347
		c0.213-0.146,0.382-0.33,0.509-0.551c0.127-0.222,0.191-0.488,0.191-0.8c0-0.32-0.083-0.601-0.248-0.841
		c-0.165-0.241-0.38-0.451-0.644-0.631c-0.264-0.179-0.565-0.33-0.905-0.451c-0.339-0.123-0.681-0.231-1.025-0.326
		c-0.344-0.094-0.676-0.177-0.997-0.248c-0.321-0.07-0.599-0.139-0.835-0.204c-0.434-0.122-0.891-0.247-1.372-0.375
		c-0.481-0.128-0.957-0.273-1.429-0.438s-0.922-0.361-1.351-0.587c-0.429-0.228-0.807-0.497-1.131-0.813
		c-0.326-0.316-0.585-0.688-0.778-1.117s-0.29-0.932-0.29-1.507c0-1.056,0.21-1.94,0.629-2.652c0.42-0.712,0.974-1.282,1.662-1.711
		c0.689-0.43,1.471-0.733,2.348-0.913c0.877-0.179,1.769-0.269,2.674-0.269c0.623,0,1.278,0.063,1.966,0.191
		c0.688,0.127,1.358,0.315,2.009,0.565s1.259,0.554,1.824,0.912c0.566,0.358,1.038,0.769,1.415,1.231l-2.786,2.291
		c-0.207-0.565-0.479-1.052-0.813-1.457c-0.334-0.405-0.698-0.737-1.089-0.997c-0.392-0.26-0.792-0.45-1.203-0.572
		c-0.411-0.123-0.79-0.185-1.139-0.185c-0.339,0-0.721,0.014-1.146,0.042c-0.424,0.028-0.823,0.108-1.195,0.241
		c-0.372,0.132-0.688,0.332-0.947,0.601c-0.26,0.269-0.389,0.64-0.389,1.11c0,0.34,0.078,0.63,0.233,0.87
		c0.156,0.24,0.361,0.448,0.615,0.623c0.255,0.174,0.544,0.32,0.87,0.438c0.325,0.118,0.658,0.222,0.997,0.312
		s0.669,0.168,0.99,0.233c0.32,0.066,0.608,0.137,0.863,0.213c0.434,0.122,0.894,0.247,1.379,0.375
		c0.485,0.127,0.964,0.272,1.436,0.438c0.471,0.165,0.926,0.358,1.365,0.58s0.823,0.492,1.153,0.813s0.594,0.695,0.791,1.124
		C99.214,25.104,99.314,25.61,99.314,26.195z"/>
	<path fill="#FFFFFF" d="M125.468,31.414h-14.627V11.046h14.627v2.603h-9.012v6.295h6.961v2.588h-6.961v6.281h9.012V31.414z"/>
	<path fill="#FFFFFF" d="M142.485,26.195c0,0.717-0.104,1.354-0.311,1.909c-0.207,0.557-0.492,1.04-0.85,1.45
		s-0.781,0.754-1.274,1.031c-0.49,0.279-1.014,0.504-1.576,0.673c-0.561,0.169-1.148,0.292-1.762,0.367
		c-0.611,0.076-1.221,0.113-1.824,0.113c-0.811,0-1.527-0.052-2.15-0.155s-1.217-0.271-1.783-0.502
		c-0.564-0.231-1.127-0.53-1.689-0.898c-0.561-0.367-1.186-0.815-1.873-1.344l2.785-2.277c0.256,0.48,0.592,0.918,1.012,1.309
		s0.857,0.729,1.309,1.012c0.453,0.282,0.891,0.5,1.316,0.65c0.424,0.15,0.768,0.227,1.031,0.227c0.217,0,0.463-0.008,0.736-0.021
		c0.273-0.015,0.551-0.043,0.834-0.085s0.563-0.106,0.834-0.191c0.275-0.085,0.518-0.2,0.73-0.347
		c0.211-0.146,0.381-0.33,0.508-0.551c0.127-0.222,0.191-0.488,0.191-0.8c0-0.32-0.082-0.601-0.248-0.841
		c-0.164-0.241-0.379-0.451-0.645-0.631c-0.262-0.179-0.564-0.33-0.904-0.451c-0.338-0.123-0.68-0.231-1.025-0.326
		c-0.344-0.094-0.678-0.177-0.996-0.248c-0.32-0.07-0.6-0.139-0.836-0.204c-0.432-0.122-0.891-0.247-1.371-0.375
		c-0.482-0.128-0.957-0.273-1.43-0.438c-0.471-0.165-0.922-0.361-1.35-0.587c-0.43-0.228-0.807-0.497-1.133-0.813
		c-0.324-0.316-0.584-0.688-0.779-1.117c-0.191-0.429-0.289-0.932-0.289-1.507c0-1.056,0.211-1.94,0.631-2.652
		s0.973-1.282,1.662-1.711c0.688-0.43,1.471-0.733,2.348-0.913c0.877-0.179,1.768-0.269,2.674-0.269
		c0.621,0,1.277,0.063,1.965,0.191c0.689,0.127,1.359,0.315,2.01,0.565s1.258,0.554,1.825,0.912
		c0.566,0.358,1.037,0.769,1.416,1.231l-2.788,2.291c-0.207-0.565-0.479-1.052-0.814-1.457c-0.334-0.405-0.699-0.737-1.09-0.997
		s-0.791-0.45-1.201-0.572c-0.41-0.123-0.789-0.185-1.139-0.185c-0.34,0-0.723,0.014-1.146,0.042s-0.822,0.108-1.195,0.241
		c-0.373,0.132-0.688,0.332-0.947,0.601s-0.389,0.64-0.389,1.11c0,0.34,0.076,0.63,0.232,0.87s0.361,0.448,0.615,0.623
		c0.256,0.174,0.545,0.32,0.871,0.438c0.326,0.118,0.658,0.222,0.998,0.312c0.338,0.09,0.668,0.168,0.988,0.233
		c0.322,0.066,0.609,0.137,0.863,0.213c0.434,0.122,0.893,0.247,1.379,0.375c0.486,0.127,0.965,0.272,1.438,0.438
		c0.469,0.165,0.926,0.358,1.363,0.58c0.438,0.222,0.823,0.492,1.153,0.813s0.596,0.695,0.793,1.124
		C142.385,25.104,142.485,25.61,142.485,26.195z"/>
	<path fill="#FFFFFF" d="M160.579,19.123l-2.066,0.82c-0.332-1.038-0.883-1.834-1.654-2.391c-0.775-0.557-1.705-0.835-2.787-0.835
		c-0.586,0-1.107,0.092-1.566,0.275c-0.455,0.185-0.855,0.437-1.201,0.757c-0.344,0.321-0.637,0.693-0.877,1.117
		c-0.24,0.425-0.436,0.877-0.584,1.358c-0.154,0.481-0.262,0.979-0.326,1.493c-0.068,0.514-0.1,1.011-0.1,1.491
		c0,0.519,0.029,1.042,0.086,1.57s0.15,1.035,0.287,1.521c0.137,0.486,0.32,0.938,0.547,1.358c0.227,0.419,0.51,0.784,0.854,1.096
		c0.346,0.312,0.754,0.557,1.23,0.735c0.477,0.18,1.027,0.27,1.65,0.27c0.498,0,0.977-0.076,1.43-0.227s0.863-0.363,1.244-0.637
		c0.375-0.273,0.711-0.599,1.004-0.977c0.291-0.377,0.523-0.797,0.693-1.258l2.08,0.764c-0.313,0.744-0.727,1.389-1.24,1.931
		s-1.094,0.989-1.744,1.344c-0.652,0.354-1.352,0.615-2.094,0.784c-0.748,0.17-1.5,0.255-2.264,0.255
		c-1.238,0-2.383-0.21-3.438-0.629c-1.059-0.42-1.969-1.009-2.738-1.769c-0.768-0.759-1.369-1.66-1.803-2.701
		c-0.434-1.043-0.65-2.186-0.65-3.431c0-1.254,0.215-2.404,0.643-3.451s1.025-1.947,1.789-2.701c0.764-0.755,1.674-1.34,2.732-1.754
		c1.053-0.415,2.209-0.623,3.465-0.623c0.791,0,1.563,0.087,2.32,0.262c0.752,0.175,1.451,0.443,2.098,0.807s1.227,0.822,1.74,1.379
		S160.266,18.35,160.579,19.123z"/>
	<path fill="#FFFFFF" d="M179.858,31.414h-4.781v-1.952c-0.566,0.773-1.248,1.347-2.043,1.719c-0.797,0.372-1.672,0.559-2.625,0.559
		c-1.244,0-2.357-0.221-3.338-0.664s-1.811-1.05-2.49-1.817c-0.678-0.77-1.197-1.672-1.557-2.709
		c-0.357-1.037-0.537-2.15-0.537-3.339c0-1.188,0.18-2.301,0.537-3.338c0.359-1.037,0.879-1.94,1.557-2.709
		c0.68-0.769,1.51-1.374,2.49-1.817s2.094-0.665,3.338-0.665c0.633,0,1.234,0.095,1.803,0.283c0.572,0.188,1.096,0.455,1.572,0.799
		c0.475,0.344,0.895,0.759,1.258,1.245c0.363,0.485,0.648,1.025,0.855,1.619l2.121-3.55h1.84V31.414z M175.047,23.21
		c0-0.424-0.02-0.872-0.063-1.344s-0.115-0.938-0.219-1.4c-0.105-0.462-0.248-0.902-0.432-1.322s-0.42-0.792-0.707-1.117
		s-0.635-0.582-1.039-0.771c-0.406-0.188-0.879-0.282-1.416-0.282s-1.004,0.097-1.4,0.29s-0.734,0.452-1.018,0.777
		s-0.518,0.7-0.701,1.125c-0.184,0.424-0.326,0.867-0.432,1.329c-0.104,0.463-0.176,0.927-0.219,1.394s-0.063,0.907-0.063,1.322
		s0.02,0.858,0.063,1.33s0.115,0.938,0.219,1.4c0.105,0.462,0.248,0.905,0.432,1.329c0.184,0.425,0.418,0.799,0.701,1.125
		c0.283,0.325,0.621,0.584,1.018,0.777s0.863,0.29,1.4,0.29c0.49,0,0.928-0.101,1.309-0.304c0.383-0.203,0.717-0.475,1.004-0.813
		s0.531-0.726,0.729-1.16c0.197-0.434,0.359-0.882,0.482-1.343c0.121-0.463,0.211-0.922,0.268-1.38S175.047,23.588,175.047,23.21z"
		/>
	<path fill="#FFFFFF" d="M201.215,23.21c0,1.188-0.18,2.302-0.537,3.339c-0.359,1.037-0.877,1.939-1.557,2.709
		c-0.678,0.768-1.508,1.374-2.488,1.817c-0.982,0.443-2.094,0.664-3.34,0.664c-0.951,0-1.822-0.187-2.621-0.559
		c-0.797-0.372-1.48-0.945-2.047-1.719v9.492h-4.779V15.077h1.838l2.123,3.55c0.207-0.594,0.494-1.134,0.857-1.619
		c0.363-0.486,0.783-0.901,1.258-1.245c0.477-0.344,1-0.61,1.572-0.799c0.568-0.188,1.168-0.283,1.799-0.283
		c1.246,0,2.357,0.222,3.34,0.665c0.98,0.443,1.811,1.049,2.488,1.817c0.68,0.769,1.197,1.672,1.557,2.709
		C201.036,20.909,201.215,22.022,201.215,23.21z M196.364,23.21c0-0.415-0.02-0.855-0.061-1.322
		c-0.043-0.467-0.117-0.931-0.223-1.394c-0.104-0.462-0.244-0.905-0.43-1.329c-0.182-0.425-0.418-0.8-0.701-1.125
		s-0.621-0.584-1.023-0.777c-0.4-0.193-0.867-0.29-1.395-0.29c-0.549,0-1.02,0.094-1.42,0.282c-0.402,0.189-0.746,0.446-1.033,0.771
		s-0.523,0.697-0.707,1.117s-0.33,0.86-0.434,1.322c-0.104,0.463-0.176,0.929-0.217,1.4c-0.043,0.472-0.066,0.92-0.066,1.344
		c0,0.378,0.027,0.794,0.084,1.252s0.148,0.917,0.27,1.38c0.123,0.461,0.283,0.909,0.48,1.343c0.199,0.435,0.443,0.821,0.732,1.16
		c0.287,0.339,0.621,0.61,1.004,0.813s0.814,0.304,1.307,0.304c0.537,0,1.004-0.097,1.398-0.29c0.398-0.193,0.736-0.452,1.02-0.777
		c0.283-0.326,0.52-0.7,0.701-1.125c0.186-0.424,0.326-0.867,0.43-1.329c0.105-0.462,0.18-0.929,0.223-1.4
		C196.344,24.068,196.364,23.625,196.364,23.21z"/>
	<path fill="#FFFFFF" d="M220,20.438c0,0.67-0.109,1.267-0.326,1.79c-0.215,0.523-0.508,0.982-0.881,1.379
		c-0.373,0.396-0.807,0.73-1.297,1.004c-0.49,0.274-1.014,0.497-1.568,0.672c-0.559,0.175-1.129,0.3-1.717,0.375
		c-0.59,0.075-1.166,0.113-1.721,0.113c-0.709,0-1.406-0.05-2.096-0.148c-0.688-0.099-1.367-0.257-2.035-0.474
		c0.104,0.622,0.268,1.214,0.494,1.775c0.227,0.561,0.529,1.051,0.904,1.471c0.379,0.42,0.846,0.752,1.396,0.997
		c0.553,0.245,1.203,0.368,1.957,0.368c0.5,0,0.977-0.076,1.43-0.227c0.451-0.15,0.867-0.363,1.244-0.637s0.711-0.599,0.998-0.977
		c0.289-0.377,0.52-0.797,0.699-1.258l2.064,0.764c-0.311,0.744-0.734,1.389-1.277,1.931s-1.154,0.989-1.838,1.344
		c-0.684,0.354-1.41,0.615-2.18,0.784c-0.768,0.17-1.531,0.255-2.285,0.255c-1.246,0-2.396-0.21-3.451-0.629
		c-1.057-0.42-1.967-1.007-2.732-1.761c-0.762-0.755-1.361-1.655-1.795-2.702s-0.65-2.192-0.65-3.438c0-1.244,0.217-2.39,0.65-3.437
		s1.033-1.948,1.795-2.702c0.766-0.754,1.676-1.342,2.732-1.761c1.055-0.42,2.205-0.63,3.451-0.63c0.604,0,1.221,0.043,1.852,0.128
		c0.633,0.084,1.244,0.219,1.84,0.402c0.594,0.185,1.154,0.422,1.682,0.715c0.529,0.292,0.99,0.652,1.383,1.082
		c0.391,0.429,0.701,0.927,0.934,1.492C219.887,19.066,220,19.712,220,20.438z M208.217,23.663c0.586,0.132,1.17,0.235,1.754,0.312
		c0.586,0.075,1.174,0.112,1.77,0.112c0.621,0,1.201-0.059,1.734-0.177c0.533-0.117,0.994-0.315,1.387-0.594
		c0.391-0.278,0.697-0.648,0.924-1.11s0.34-1.037,0.34-1.726c0-0.557-0.076-1.065-0.227-1.528c-0.15-0.462-0.373-0.857-0.67-1.188
		s-0.666-0.587-1.098-0.771c-0.436-0.184-0.939-0.275-1.516-0.275c-0.537,0-1.018,0.1-1.447,0.297
		c-0.428,0.198-0.805,0.465-1.131,0.799c-0.324,0.336-0.604,0.725-0.834,1.167c-0.232,0.443-0.426,0.906-0.576,1.387
		c-0.15,0.481-0.26,0.967-0.324,1.457c-0.066,0.49-0.1,0.952-0.1,1.386c0,0.075,0,0.151,0,0.226
		C208.204,23.512,208.209,23.588,208.217,23.663z"/>
</g>
</svg>
